<svg width="14" height="14" viewBox="0 0 40 40" fill="none" xmlns="http://www.w3.org/2000/svg">
<path d="M35.1613 23.2052L26.7265 3.8842L24.8873 2.60921L22.731 1.92267L19.8137 1.13806L16.3891 2.60921L14.106 3.8842L22.731 23.2052H35.1613Z" fill="url(#paint0_linear_74_1186)"/>
<path d="M4.89267 16.7431L13.3275 36.1094L15.1667 37.3873L17.3229 38.0755L20.2402 38.8619L23.6649 37.3873L25.948 36.1094L17.3229 16.7431H4.89267Z" fill="url(#paint1_linear_74_1186)"/>
<path d="M13.6545 4.136L0.559859 23.0638L13.6545 23.2041L23.1204 4.136C23.785 2.1853 25.8644 3.32321 26.8211 4.136C22.7327 -3.3547 16.3399 1.01488 13.6545 4.136Z" fill="white"/>
<path d="M26.3455 35.864L39.4401 16.9362L26.3455 16.7959L16.8796 35.864C16.215 37.8147 14.1356 36.6768 13.1789 35.864C17.2673 43.3547 23.6601 38.9851 26.3455 35.864Z" fill="white"/>
<defs>
<linearGradient id="paint0_linear_74_1186" x1="32.9799" y1="23.2052" x2="22.9766" y2="4.49106" gradientUnits="userSpaceOnUse">
<stop/>
<stop offset="0.494792" stop-color="white"/>
<stop offset="1" stop-color="white"/>
</linearGradient>
<linearGradient id="paint1_linear_74_1186" x1="7.07407" y1="16.7431" x2="17.1138" y2="35.4816" gradientUnits="userSpaceOnUse">
<stop stop-color="#0C0C0C"/>
<stop offset="0.494792" stop-color="white"/>
<stop offset="1" stop-color="white"/>
</linearGradient>
</defs>
</svg>
