<svg xmlns="http://www.w3.org/2000/svg" width="16" height="16" fill="none"><g clip-path="url(#a)"><rect width="16" height="16" fill="#1E2827" rx="4"/><g filter="url(#b)"><path fill="#E9E9E9" d="m12.632 9.005-2.533-5.8-.552-.383-.647-.207-.876-.235-1.028.442-.686.382 2.59 5.8h3.732Z"/></g><g filter="url(#c)"><path fill="#E7E7E7" d="m3.544 7.066 2.533 5.814.552.383.647.207.876.236 1.028-.443.685-.383-2.589-5.814H3.544Z"/></g><path fill="#fff" d="M6.175 3.28 2.244 8.963l3.93.042L9.018 3.28c.2-.585.823-.244 1.11 0-1.227-2.249-3.146-.937-3.952 0ZM9.985 12.806l3.931-5.683-3.931-.042-2.842 5.725c-.2.585-.824.244-1.111 0 1.227 2.249 3.147.937 3.953 0Z"/></g><defs><filter id="b" width="46.321" height="46.625" x="-13.69" y="-13.62" color-interpolation-filters="sRGB" filterUnits="userSpaceOnUse"><feFlood flood-opacity="0" result="BackgroundImageFix"/><feColorMatrix in="SourceAlpha" result="hardAlpha" values="0 0 0 0 0 0 0 0 0 0 0 0 0 0 0 0 0 0 127 0"/><feOffset dy="4"/><feGaussianBlur stdDeviation="10"/><feComposite in2="hardAlpha" operator="out"/><feColorMatrix values="0 0 0 0 0 0 0 0 0 0 0 0 0 0 0 0 0 0 0.25 0"/><feBlend in2="BackgroundImageFix" result="effect1_dropShadow_7447_49"/><feBlend in="SourceGraphic" in2="effect1_dropShadow_7447_49" result="shape"/></filter><filter id="c" width="46.321" height="46.641" x="-16.456" y="-8.935" color-interpolation-filters="sRGB" filterUnits="userSpaceOnUse"><feFlood flood-opacity="0" result="BackgroundImageFix"/><feColorMatrix in="SourceAlpha" result="hardAlpha" values="0 0 0 0 0 0 0 0 0 0 0 0 0 0 0 0 0 0 127 0"/><feOffset dy="4"/><feGaussianBlur stdDeviation="10"/><feComposite in2="hardAlpha" operator="out"/><feColorMatrix values="0 0 0 0 0 0 0 0 0 0 0 0 0 0 0 0 0 0 0.25 0"/><feBlend in2="BackgroundImageFix" result="effect1_dropShadow_7447_49"/><feBlend in="SourceGraphic" in2="effect1_dropShadow_7447_49" result="shape"/></filter><clipPath id="a"><path fill="#fff" d="M0 0h16v16H0z"/></clipPath></defs></svg>